:version 1.10
:name ASF
:units
  mass 1
  length 1
  angle deg
:documentation
  ASF file generated by Kaydara
:root
  axis xyz
  order  tx ty tz rx ry rz
  position 0 0 0
  orientation 0 0 0
:bonedata
  begin
    id 1
    name RightUpLegDummy
    direction -1 2.30186e-007 8.31532e-007
    length 4.04083
    axis 0 0 0 xyz
  end
  begin
    id 2
    name RightUpLeg
    direction -0.000919234 -0.999985 0.00544864
    length 17.4221
    axis -3.80308 -0.00076134 -0.0523649 xyz
    dof rx ry rz
  end
  begin
    id 3
    name RightLeg
    direction -0.000919271 -0.999984 -0.00555045
    length 17.1239
    axis 4.00314 0.0181274 -0.183583 xyz
    dof rx ry rz
  end
  begin
    id 4
    name RightFoot
    direction -2.57843e-005 -4.04509e-007 1
    length 6.72091
    axis 8.18909e-005 -0.122003 -0.403008 xyz
    dof rx ry rz
  end
  begin
    id 5
    name RightToes
    direction 0.00116825 -0.014069 0.9999
    length 3.85082
    axis 0.000514414 0.540638 -0.356797 xyz
    dof rx ry rz
  end
  begin
    id 6
    name SpineDummy
    direction 0.0168869 0.966876 -0.254689
    length 6.99894
    axis 0 0 0 xyz
  end
  begin
    id 7
    name Spine
    direction -0.0132008 0.999903 0.00446247
    length 11.1999
    axis -0.00148109 0.00725429 0.756411 xyz
    dof rx ry rz
  end
  begin
    id 8
    name Spine1
    direction 0 0 0
    length 0
    axis -0.000934958 0.0245693 1.46543 xyz
    dof rx ry rz
  end
  begin
    id 9
    name HEadDummy
    direction -0.0255732 0.999672 0.00128215
    length 3.43865
    axis -0.000934958 0.0245693 1.46543 xyz
  end
  begin
    id 10
    name HEad
    direction -0.0472656 0.980052 0.19304
    length 5.12695
    axis -0.000934954 0.0245693 1.46543 xyz
    dof rx ry rz
  end
  begin
    id 11
    name LeftShoulder1Dummy
    direction 0.953098 0.301717 -0.023914
    length 3.68488
    axis -0.000934958 0.0245693 1.46543 xyz
  end
  begin
    id 12
    name LeftShoulder1
    direction 0.962466 0.271167 0.0112566
    length 3.13809
    axis -0.000934958 0.0245693 1.46543 xyz
    dof rx ry rz
  end
  begin
    id 13
    name LeftArm
    direction 0.999943 0.00455037 -0.00961766
    length 11.3419
    axis -23.1648 0.685459 1.22814 xyz
    dof rx ry rz
  end
  begin
    id 14
    name LeftForeArm
    direction 0.999332 0.0131969 0.0340885
    length 8.70632
    axis -9.90633 0.618216 0.0826942 xyz
    dof rx ry rz
  end
  begin
    id 15
    name LeftHand
    direction 0.994373 -0.0366703 0.0993905
    length 5.32135
    axis 0.00675269 0.680415 0.445699 xyz
    dof rx ry rz
  end
  begin
    id 16
    name RightShoulderDummy
    direction -0.967298 0.252589 -0.0230903
    length 3.68488
    axis -0.000934958 0.0245693 1.46543 xyz
  end
  begin
    id 17
    name RightShoulder
    direction -0.975062 0.221602 0.0120823
    length 3.13809
    axis 0.216257 0.0246515 1.45863 xyz
    dof rx ry rz
  end
  begin
    id 18
    name RightArm
    direction -0.99886 -0.00851186 -0.0469687
    length 10.3947
    axis -23.196 0.23503 -0.532632 xyz
    dof rx ry rz
  end
  begin
    id 19
    name RightForeArm
    direction -0.99909 0.00114866 0.0426317
    length 8.68355
    axis -9.91764 -0.134943 0.610517 xyz
    dof rx ry rz
  end
  begin
    id 20
    name RightHand
    direction -0.992888 -0.0489538 0.10852
    length 5.28593
    axis -0.00275396 -0.197403 0.246414 xyz
    dof rx ry rz
  end
  begin
    id 21
    name LeftUpLegDummy
    direction 1 -2.30186e-007 -8.31532e-007
    length 4.04083
    axis 0 0 0 xyz
  end
  begin
    id 22
    name LeftUpLeg
    direction -0.000920097 -1 2.79241e-006
    length 17.4221
    axis -3.48782 0.00143434 -0.0532288 xyz
    dof rx ry rz
  end
  begin
    id 23
    name LeftLeg
    direction -0.000920097 -1 2.7912e-006
    length 17.1239
    axis 3.68162 -0.00806512 -0.0529896 xyz
    dof rx ry rz
  end
  begin
    id 24
    name LeftFoot
    direction -2.57845e-005 -3.987e-007 1
    length 6.72091
    axis 3.02372e-005 -0.00147829 -0.214229 xyz
    dof rx ry rz
  end
  begin
    id 25
    name LeftToes
    direction 0.00813577 -0.00488255 0.999955
    length 3.85048
    axis 3.89895e-005 -0.0014783 -0.214229 xyz
    dof rx ry rz
  end
:hierarchy
  begin
    root RightUpLegDummy SpineDummy LeftUpLegDummy
    RightUpLegDummy RightUpLeg
    RightUpLeg RightLeg
    RightLeg RightFoot
    RightFoot RightToes
    SpineDummy Spine
    Spine Spine1
    Spine1 HEadDummy LeftShoulder1Dummy RightShoulderDummy
    HEadDummy HEad
    LeftShoulder1Dummy LeftShoulder1
    LeftShoulder1 LeftArm
    LeftArm LeftForeArm
    LeftForeArm LeftHand
    RightShoulderDummy RightShoulder
    RightShoulder RightArm
    RightArm RightForeArm
    RightForeArm RightHand
    LeftUpLegDummy LeftUpLeg
    LeftUpLeg LeftLeg
    LeftLeg LeftFoot
    LeftFoot LeftToes
  end

:SAMPLES-PER-SECOND 30
:FULLY-SPECIFIED
:DEGREES
33
root  -41.7447 34.8811 11.9128 -169.217 58.865 -179.321
RightUpLeg  -6.94459 -16.6919 -0.510392
RightLeg  1.8114 -1.48957 0.0598616
RightFoot  7.07756 0.0347946 -0.0280818
RightToes  -27.2576 -0.126169 -0.232039
Spine  -2.51178 -0.141074 0.00181209
Spine1  -5.06869 -0.211578 0.626977
HEad  -68.2173 -3.58769 8.20907
LeftShoulder1  -1.94126e-019 -3.10601e-018 -2.51263e-017
LeftArm  -11.6487 22.3897 -81.7669
LeftForeArm  32.2129 -18.2425 -2.98878
LeftHand  -0.44039 -1.50198 7.56893
RightShoulder  -4.96962e-017 0 -2.36833e-017
RightArm  -22.9628 -20.815 76.9748
RightForeArm  58.9473 14.2354 1.18741
RightHand  -0.419838 -0.822604 -10.6365
LeftUpLeg  -7.40756 5.89924 2.0189
LeftLeg  2.86108 12.8837 -0.183405
LeftFoot  6.9841 -0.0946056 1.7418
LeftToes  -23.9935 1.9075e-006 4.29692e-008
34
root  -41.734 34.874 11.9059 -169.262 58.8551 -179.386
RightUpLeg  -6.9577 -16.7815 -0.545975
RightLeg  1.86214 -1.41072 0.0454261
RightFoot  6.99874 0.0340175 -0.016977
RightToes  -27.3352 -0.126169 -0.232039
Spine  -2.52465 -0.165861 0.0116394
Spine1  -5.09472 -0.26155 0.648714
HEad  -68.202 -3.53397 8.21781
LeftShoulder1  -1.94126e-019 -3.10601e-018 -2.51263e-017
LeftArm  -11.7377 22.5221 -81.7768
LeftForeArm  32.0884 -17.9229 -2.95087
LeftHand  -0.437554 -1.40887 7.67952
RightShoulder  -4.96962e-017 0 -2.36833e-017
RightArm  -23.0742 -20.9916 76.7782
RightForeArm  58.9496 14.1592 1.19889
RightHand  -0.408951 -0.925537 -10.5874
LeftUpLeg  -7.41462 5.8392 1.98834
LeftLeg  2.89794 12.9265 -0.175761
LeftFoot  6.91226 -0.0938591 1.73019
LeftToes  -23.923 1.9075e-006 4.29692e-008
35
root  -41.7328 34.8711 11.9049 -169.294 58.8952 -179.42
RightUpLeg  -6.99504 -16.6836 -0.571674
RightLeg  1.94183 -1.47367 0.0453993
RightFoot  6.95604 0.034229 -0.0235728
RightToes  -27.3334 -0.126169 -0.232039
Spine  -2.52579 -0.181304 0.0300752
Spine1  -5.09811 -0.291493 0.687053
HEad  -68.2686 -3.47343 8.2099
LeftShoulder1  -1.94126e-019 -3.10601e-018 -2.51263e-017
LeftArm  -11.9679 22.6596 -81.8639
LeftForeArm  32.0113 -17.4371 -2.88533
LeftHand  -0.438503 -1.37638 7.68285
RightShoulder  -4.96962e-017 0 -2.36833e-017
RightArm  -23.2001 -21.1275 76.5421
RightForeArm  58.7789 14.1249 1.2061
RightHand  -0.396836 -0.98432 -10.4024
LeftUpLeg  -7.43344 5.81572 1.96877
LeftLeg  2.96036 12.9855 -0.162529
LeftFoot  6.90066 -0.0941177 1.73421
LeftToes  -23.9891 1.9075e-006 4.29692e-008
36
root  -41.7312 34.8684 11.9044 -169.308 58.9369 -179.435
RightUpLeg  -7.04024 -16.6309 -0.583849
RightLeg  2.03181 -1.48398 0.0434011
RightFoot  6.91505 0.03396 -0.0232936
RightToes  -27.3442 -0.126169 -0.232039
Spine  -2.52669 -0.197634 0.0509972
Spine1  -5.09985 -0.323458 0.729553
HEad  -68.3243 -3.43178 8.24377
LeftShoulder1  -1.94126e-019 -3.10601e-018 -2.51263e-017
LeftArm  -12.2999 22.8312 -81.9732
LeftForeArm  31.9875 -16.8692 -2.80617
LeftHand  -0.442302 -1.39863 7.72448
RightShoulder  -4.96962e-017 0 -2.36833e-017
RightArm  -23.2751 -21.2702 76.3062
RightForeArm  58.7824 14.0735 1.21387
RightHand  -0.383647 -1.09353 -10.2976
LeftUpLeg  -7.45553 5.72315 1.9605
LeftLeg  3.03688 13.1208 -0.146827
LeftFoot  6.8508 -0.0944195 1.7389
LeftToes  -23.9536 1.9075e-006 4.29692e-008
37
root  -41.7296 34.865 11.9001 -169.35 58.9614 -179.469
RightUpLeg  -7.06344 -16.6632 -0.617352
RightLeg  2.11171 -1.41693 0.0326154
RightFoot  6.86829 0.03353 -0.0201058
RightToes  -27.335 -0.126169 -0.232039
Spine  -2.52747 -0.210462 0.0657913
Spine1  -5.11008 -0.348461 0.764555
HEad  -68.3578 -3.42167 8.29965
LeftShoulder1  -1.94126e-019 -3.10601e-018 -2.51263e-017
LeftArm  -12.6092 23.0045 -82.1014
LeftForeArm  32.1048 -16.2422 -2.71384
LeftHand  -0.446536 -1.29852 7.90572
RightShoulder  -4.96962e-017 0 -2.36833e-017
RightArm  -23.4176 -21.4188 76.0596
RightForeArm  58.6782 13.9971 1.22646
RightHand  -0.37433 -1.16428 -10.2055
LeftUpLeg  -7.45827 5.9049 1.93282
LeftLeg  3.08331 12.9547 -0.134601
LeftFoot  6.80049 -0.0917507 1.70569
LeftToes  -23.8835 1.9075e-006 4.29692e-008
38
root  -41.7279 34.8605 11.8972 -169.368 59.0182 -179.487
RightUpLeg  -7.12366 -16.5999 -0.630798
RightLeg  2.23083 -1.44025 0.0351281
RightFoot  6.81069 0.0331586 -0.0171996
RightToes  -27.3338 -0.126169 -0.232039
Spine  -2.52821 -0.215065 0.0774793
Spine1  -5.10628 -0.356708 0.787951
HEad  -68.3444 -3.40517 8.35505
LeftShoulder1  -1.94126e-019 -3.10601e-018 -2.51263e-017
LeftArm  -13.0131 23.178 -82.2065
LeftForeArm  32.1438 -15.6659 -2.62708
LeftHand  -0.444823 -1.2713 7.90595
RightShoulder  -4.96962e-017 0 -2.36833e-017
RightArm  -23.5798 -21.5573 75.8561
RightForeArm  58.678 13.9591 1.23226
RightHand  -0.358794 -1.30811 -10.1055
LeftUpLeg  -7.48963 5.88234 1.91981
LeftLeg  3.18361 13.0305 -0.112769
LeftFoot  6.77229 -0.0915464 1.70758
LeftToes  -24.0438 1.9075e-006 4.29692e-008
